{
 "cells": [
  {
   "cell_type": "code",
   "execution_count": 1,
   "id": "9ba472bc-6ffa-4336-aa76-92cba3a84fe1",
   "metadata": {},
   "outputs": [
    {
     "name": "stdout",
     "output_type": "stream",
     "text": [
      "  % Total    % Received % Xferd  Average Speed   Time    Time     Time  Current\n",
      "                                 Dload  Upload   Total   Spent    Left  Speed\n",
      "100 39.2M  100 39.2M    0     0  6288k      0  0:00:06  0:00:06 --:--:-- 8305k\n",
      "env: PATH=/home/javier/anaconda3/bin:/home/javier/anaconda3/condabin:/home/javier/.local/bin:/usr/local/sbin:/usr/local/bin:/usr/sbin:/usr/bin:/sbin:/bin:/usr/games:/usr/local/games:/snap/bin:/snap/bin:/home/javier/software/bin:./ffmpeg-6.0-amd64-static\n",
      "./ffmpeg-6.0-amd64-static/ffmpeg\n"
     ]
    }
   ],
   "source": [
    "# Download latest FFmpeg static build.  \n",
    "exist = !which ffmpeg\n",
    "if not exist:\n",
    "  !curl https://johnvansickle.com/ffmpeg/releases/ffmpeg-release-amd64-static.tar.xz -o ffmpeg.tar.xz \\\n",
    "     && tar -xf ffmpeg.tar.xz && rm ffmpeg.tar.xz\n",
    "  ffmdir = !find . -iname ffmpeg-*-static\n",
    "  path = %env PATH\n",
    "  path = path + ':' + ffmdir[0]\n",
    "  %env PATH $path\n",
    "\n",
    "!which ffmpeg"
   ]
  },
  {
   "cell_type": "code",
   "execution_count": 2,
   "id": "32721f28-34d3-4336-908f-084b7d7963a4",
   "metadata": {
    "tags": []
   },
   "outputs": [
    {
     "name": "stdout",
     "output_type": "stream",
     "text": [
      "ffmpeg version 6.0-static https://johnvansickle.com/ffmpeg/  Copyright (c) 2000-2023 the FFmpeg developers\n",
      "  built with gcc 8 (Debian 8.3.0-6)\n",
      "  configuration: --enable-gpl --enable-version3 --enable-static --disable-debug --disable-ffplay --disable-indev=sndio --disable-outdev=sndio --cc=gcc --enable-fontconfig --enable-frei0r --enable-gnutls --enable-gmp --enable-libgme --enable-gray --enable-libaom --enable-libfribidi --enable-libass --enable-libvmaf --enable-libfreetype --enable-libmp3lame --enable-libopencore-amrnb --enable-libopencore-amrwb --enable-libopenjpeg --enable-librubberband --enable-libsoxr --enable-libspeex --enable-libsrt --enable-libvorbis --enable-libopus --enable-libtheora --enable-libvidstab --enable-libvo-amrwbenc --enable-libvpx --enable-libwebp --enable-libx264 --enable-libx265 --enable-libxml2 --enable-libdav1d --enable-libxvid --enable-libzvbi --enable-libzimg\n",
      "  libavutil      58.  2.100 / 58.  2.100\n",
      "  libavcodec     60.  3.100 / 60.  3.100\n",
      "  libavformat    60.  3.100 / 60.  3.100\n",
      "  libavdevice    60.  1.100 / 60.  1.100\n",
      "  libavfilter     9.  3.100 /  9.  3.100\n",
      "  libswscale      7.  1.100 /  7.  1.100\n",
      "  libswresample   4. 10.100 /  4. 10.100\n",
      "  libpostproc    57.  1.100 / 57.  1.100\n",
      "Input #0, mov,mp4,m4a,3gp,3g2,mj2, from '_input/fernando.mp4':\n",
      "  Metadata:\n",
      "    major_brand     : mp42\n",
      "    minor_version   : 0\n",
      "    compatible_brands: isommp42\n",
      "    creation_time   : 2021-10-20T20:09:18.000000Z\n",
      "  Duration: 00:00:24.20, start: 0.000000, bitrate: 864 kb/s\n",
      "  Stream #0:0[0x1](und): Video: h264 (Main) (avc1 / 0x31637661), yuv420p(tv, bt709, progressive), 406x720 [SAR 1:1 DAR 203:360], 731 kb/s, 29.97 fps, 29.97 tbr, 11988 tbn (default)\n",
      "    Metadata:\n",
      "      creation_time   : 2021-10-20T20:09:18.000000Z\n",
      "      handler_name    : ISO Media file produced by Google Inc. Created on: 10/20/2021.\n",
      "      vendor_id       : [0][0][0][0]\n",
      "  Stream #0:1[0x2](eng): Audio: aac (LC) (mp4a / 0x6134706D), 44100 Hz, stereo, fltp, 128 kb/s (default)\n",
      "    Metadata:\n",
      "      creation_time   : 2021-10-20T20:09:18.000000Z\n",
      "      handler_name    : ISO Media file produced by Google Inc. Created on: 10/20/2021.\n",
      "      vendor_id       : [0][0][0][0]\n",
      "\u001b[4;31mAt least one output file must be specified\n",
      "\u001b[0m"
     ]
    }
   ],
   "source": [
    "!ffmpeg -i _input/fernando.mp4"
   ]
  },
  {
   "cell_type": "code",
   "execution_count": 10,
   "id": "289b66a5-e5ab-43d0-93dc-12cc843e2823",
   "metadata": {},
   "outputs": [
    {
     "data": {
      "text/html": [
       "<video src=\"./output_rotate.mp4\" controls  width=\"400\"  height=\"300\">\n",
       "      Your browser does not support the <code>video</code> element.\n",
       "    </video>"
      ],
      "text/plain": [
       "<IPython.core.display.Video object>"
      ]
     },
     "execution_count": 10,
     "metadata": {},
     "output_type": "execute_result"
    }
   ],
   "source": [
    "from IPython.display import Video\n",
    "#Video(\"./output_rotate.mp4\", width=400, height=300)"
   ]
  },
  {
   "cell_type": "code",
   "execution_count": 4,
   "id": "966b32ff-3662-46ca-9073-71b3f39c94c2",
   "metadata": {},
   "outputs": [
    {
     "name": "stdout",
     "output_type": "stream",
     "text": [
      "ffmpeg version 6.0-static https://johnvansickle.com/ffmpeg/  Copyright (c) 2000-2023 the FFmpeg developers\n",
      "  built with gcc 8 (Debian 8.3.0-6)\n",
      "  configuration: --enable-gpl --enable-version3 --enable-static --disable-debug --disable-ffplay --disable-indev=sndio --disable-outdev=sndio --cc=gcc --enable-fontconfig --enable-frei0r --enable-gnutls --enable-gmp --enable-libgme --enable-gray --enable-libaom --enable-libfribidi --enable-libass --enable-libvmaf --enable-libfreetype --enable-libmp3lame --enable-libopencore-amrnb --enable-libopencore-amrwb --enable-libopenjpeg --enable-librubberband --enable-libsoxr --enable-libspeex --enable-libsrt --enable-libvorbis --enable-libopus --enable-libtheora --enable-libvidstab --enable-libvo-amrwbenc --enable-libvpx --enable-libwebp --enable-libx264 --enable-libx265 --enable-libxml2 --enable-libdav1d --enable-libxvid --enable-libzvbi --enable-libzimg\n",
      "  libavutil      58.  2.100 / 58.  2.100\n",
      "  libavcodec     60.  3.100 / 60.  3.100\n",
      "  libavformat    60.  3.100 / 60.  3.100\n",
      "  libavdevice    60.  1.100 / 60.  1.100\n",
      "  libavfilter     9.  3.100 /  9.  3.100\n",
      "  libswscale      7.  1.100 /  7.  1.100\n",
      "  libswresample   4. 10.100 /  4. 10.100\n",
      "  libpostproc    57.  1.100 / 57.  1.100\n",
      "Input #0, mov,mp4,m4a,3gp,3g2,mj2, from '_input/fernando.mp4':\n",
      "  Metadata:\n",
      "    major_brand     : mp42\n",
      "    minor_version   : 0\n",
      "    compatible_brands: isommp42\n",
      "    creation_time   : 2021-10-20T20:09:18.000000Z\n",
      "  Duration: 00:00:24.20, start: 0.000000, bitrate: 864 kb/s\n",
      "  Stream #0:0[0x1](und): Video: h264 (Main) (avc1 / 0x31637661), yuv420p(tv, bt709, progressive), 406x720 [SAR 1:1 DAR 203:360], 731 kb/s, 29.97 fps, 29.97 tbr, 11988 tbn (default)\n",
      "    Metadata:\n",
      "      creation_time   : 2021-10-20T20:09:18.000000Z\n",
      "      handler_name    : ISO Media file produced by Google Inc. Created on: 10/20/2021.\n",
      "      vendor_id       : [0][0][0][0]\n",
      "  Stream #0:1[0x2](eng): Audio: aac (LC) (mp4a / 0x6134706D), 44100 Hz, stereo, fltp, 128 kb/s (default)\n",
      "    Metadata:\n",
      "      creation_time   : 2021-10-20T20:09:18.000000Z\n",
      "      handler_name    : ISO Media file produced by Google Inc. Created on: 10/20/2021.\n",
      "      vendor_id       : [0][0][0][0]\n",
      "Stream mapping:\n",
      "  Stream #0:1 -> #0:0 (aac (native) -> mp3 (libmp3lame))\n",
      "Press [q] to stop, [?] for help\n",
      "Output #0, mp3, to '_output/fernando.mp3':\n",
      "  Metadata:\n",
      "    major_brand     : mp42\n",
      "    minor_version   : 0\n",
      "    compatible_brands: isommp42\n",
      "    TSSE            : Lavf60.3.100\n",
      "  Stream #0:0(eng): Audio: mp3, 44100 Hz, stereo, fltp (default)\n",
      "    Metadata:\n",
      "      creation_time   : 2021-10-20T20:09:18.000000Z\n",
      "      handler_name    : ISO Media file produced by Google Inc. Created on: 10/20/2021.\n",
      "      vendor_id       : [0][0][0][0]\n",
      "      encoder         : Lavc60.3.100 libmp3lame\n",
      "size=     379kB time=00:00:24.19 bitrate= 128.4kbits/s speed=94.1x       \n",
      "video:0kB audio:379kB subtitle:0kB other streams:0kB global headers:0kB muxing overhead: 0.088948%\n"
     ]
    }
   ],
   "source": [
    "!ffmpeg -i _input/fernando.mp4 -vn _output/fernando.mp3"
   ]
  },
  {
   "cell_type": "code",
   "execution_count": null,
   "id": "6f7cf048-9c7d-4a82-b1ea-384b1c5ea0b2",
   "metadata": {},
   "outputs": [],
   "source": []
  }
 ],
 "metadata": {
  "kernelspec": {
   "display_name": "Python 3 (ipykernel)",
   "language": "python",
   "name": "python3"
  },
  "language_info": {
   "codemirror_mode": {
    "name": "ipython",
    "version": 3
   },
   "file_extension": ".py",
   "mimetype": "text/x-python",
   "name": "python",
   "nbconvert_exporter": "python",
   "pygments_lexer": "ipython3",
   "version": "3.9.16"
  }
 },
 "nbformat": 4,
 "nbformat_minor": 5
}
